<?xml version="1.0"?>
<svg xmlns="http://www.w3.org/2000/svg" xmlns:lc="http://www.librecad.org" xmlns:xlink="http://www.w3.org/1999/xlink" width="285.75mm" height="95.25mm" viewBox="0 0 285.75 95.25">
    <g lc:layername="0" lc:is_locked="false" lc:is_construction="false" fill="none" stroke="black" stroke-width="1">
        <line x1="3.025" y1="2.525" x2="16.025" y2="2.525"/>
        <line x1="3.025" y1="16.525" x2="16.025" y2="16.525"/>
        <line x1="2.525" y1="3.025" x2="2.525" y2="16.025"/>
        <line x1="16.525" y1="3.025" x2="16.525" y2="16.025"/>
        <path d="M3.025,2.525 A0.5,0.5 0 0,0 2.525,3.025 "/>
        <path d="M16.525,3.025 A0.5,0.5 0 0,0 16.025,2.525 "/>
        <path d="M2.525,16.025 A0.5,0.5 0 0,0 3.025,16.525 "/>
        <path d="M16.025,16.525 A0.5,0.5 0 0,0 16.525,16.025 "/>
        <line x1="22.075" y1="2.525" x2="35.075" y2="2.525"/>
        <line x1="22.075" y1="16.525" x2="35.075" y2="16.525"/>
        <line x1="21.575" y1="3.025" x2="21.575" y2="16.025"/>
        <line x1="35.575" y1="3.025" x2="35.575" y2="16.025"/>
        <path d="M22.075,2.525 A0.5,0.5 0 0,0 21.575,3.025 "/>
        <path d="M35.575,3.025 A0.5,0.5 0 0,0 35.075,2.525 "/>
        <path d="M21.575,16.025 A0.5,0.5 0 0,0 22.075,16.525 "/>
        <path d="M35.075,16.525 A0.5,0.5 0 0,0 35.575,16.025 "/>
        <line x1="41.125" y1="2.525" x2="54.125" y2="2.525"/>
        <line x1="41.125" y1="16.525" x2="54.125" y2="16.525"/>
        <line x1="40.625" y1="3.025" x2="40.625" y2="16.025"/>
        <line x1="54.625" y1="3.025" x2="54.625" y2="16.025"/>
        <path d="M41.125,2.525 A0.5,0.5 0 0,0 40.625,3.025 "/>
        <path d="M54.625,3.025 A0.5,0.5 0 0,0 54.125,2.525 "/>
        <path d="M40.625,16.025 A0.5,0.5 0 0,0 41.125,16.525 "/>
        <path d="M54.125,16.525 A0.5,0.5 0 0,0 54.625,16.025 "/>
        <line x1="60.175" y1="2.525" x2="73.175" y2="2.525"/>
        <line x1="60.175" y1="16.525" x2="73.175" y2="16.525"/>
        <line x1="59.675" y1="3.025" x2="59.675" y2="16.025"/>
        <line x1="73.675" y1="3.025" x2="73.675" y2="16.025"/>
        <path d="M60.175,2.525 A0.5,0.5 0 0,0 59.675,3.025 "/>
        <path d="M73.675,3.025 A0.5,0.5 0 0,0 73.175,2.525 "/>
        <path d="M59.675,16.025 A0.5,0.5 0 0,0 60.175,16.525 "/>
        <path d="M73.175,16.525 A0.5,0.5 0 0,0 73.675,16.025 "/>
        <line x1="79.225" y1="2.525" x2="92.225" y2="2.525"/>
        <line x1="79.225" y1="16.525" x2="92.225" y2="16.525"/>
        <line x1="78.725" y1="3.025" x2="78.725" y2="16.025"/>
        <line x1="92.725" y1="3.025" x2="92.725" y2="16.025"/>
        <path d="M79.225,2.525 A0.5,0.5 0 0,0 78.725,3.025 "/>
        <path d="M92.725,3.025 A0.5,0.5 0 0,0 92.225,2.525 "/>
        <path d="M78.725,16.025 A0.5,0.5 0 0,0 79.225,16.525 "/>
        <path d="M92.225,16.525 A0.5,0.5 0 0,0 92.725,16.025 "/>
        <line x1="98.275" y1="2.525" x2="111.275" y2="2.525"/>
        <line x1="98.275" y1="16.525" x2="111.275" y2="16.525"/>
        <line x1="97.775" y1="3.025" x2="97.775" y2="16.025"/>
        <line x1="111.775" y1="3.025" x2="111.775" y2="16.025"/>
        <path d="M98.275,2.525 A0.5,0.5 0 0,0 97.775,3.025 "/>
        <path d="M111.775,3.025 A0.5,0.5 0 0,0 111.275,2.525 "/>
        <path d="M97.775,16.025 A0.5,0.5 0 0,0 98.275,16.525 "/>
        <path d="M111.275,16.525 A0.5,0.5 0 0,0 111.775,16.025 "/>
        <line x1="117.325" y1="2.525" x2="130.325" y2="2.525"/>
        <line x1="117.325" y1="16.525" x2="130.325" y2="16.525"/>
        <line x1="116.825" y1="3.025" x2="116.825" y2="16.025"/>
        <line x1="130.825" y1="3.025" x2="130.825" y2="16.025"/>
        <path d="M117.325,2.525 A0.5,0.5 0 0,0 116.825,3.025 "/>
        <path d="M130.825,3.025 A0.5,0.5 0 0,0 130.325,2.525 "/>
        <path d="M116.825,16.025 A0.5,0.5 0 0,0 117.325,16.525 "/>
        <path d="M130.325,16.525 A0.5,0.5 0 0,0 130.825,16.025 "/>
        <line x1="136.375" y1="2.525" x2="149.375" y2="2.525"/>
        <line x1="136.375" y1="16.525" x2="149.375" y2="16.525"/>
        <line x1="135.875" y1="3.025" x2="135.875" y2="16.025"/>
        <line x1="149.875" y1="3.025" x2="149.875" y2="16.025"/>
        <path d="M136.375,2.525 A0.5,0.5 0 0,0 135.875,3.025 "/>
        <path d="M149.875,3.025 A0.5,0.5 0 0,0 149.375,2.525 "/>
        <path d="M135.875,16.025 A0.5,0.5 0 0,0 136.375,16.525 "/>
        <path d="M149.375,16.525 A0.5,0.5 0 0,0 149.875,16.025 "/>
        <line x1="155.425" y1="2.525" x2="168.425" y2="2.525"/>
        <line x1="155.425" y1="16.525" x2="168.425" y2="16.525"/>
        <line x1="154.925" y1="3.025" x2="154.925" y2="16.025"/>
        <line x1="168.925" y1="3.025" x2="168.925" y2="16.025"/>
        <path d="M155.425,2.525 A0.5,0.5 0 0,0 154.925,3.025 "/>
        <path d="M168.925,3.025 A0.5,0.5 0 0,0 168.425,2.525 "/>
        <path d="M154.925,16.025 A0.5,0.5 0 0,0 155.425,16.525 "/>
        <path d="M168.425,16.525 A0.5,0.5 0 0,0 168.925,16.025 "/>
        <line x1="174.475" y1="2.525" x2="187.475" y2="2.525"/>
        <line x1="174.475" y1="16.525" x2="187.475" y2="16.525"/>
        <line x1="173.975" y1="3.025" x2="173.975" y2="16.025"/>
        <line x1="187.975" y1="3.025" x2="187.975" y2="16.025"/>
        <path d="M174.475,2.525 A0.5,0.5 0 0,0 173.975,3.025 "/>
        <path d="M187.975,3.025 A0.5,0.5 0 0,0 187.475,2.525 "/>
        <path d="M173.975,16.025 A0.5,0.5 0 0,0 174.475,16.525 "/>
        <path d="M187.475,16.525 A0.5,0.5 0 0,0 187.975,16.025 "/>
        <line x1="193.525" y1="2.525" x2="206.525" y2="2.525"/>
        <line x1="193.525" y1="16.525" x2="206.525" y2="16.525"/>
        <line x1="193.025" y1="3.025" x2="193.025" y2="16.025"/>
        <line x1="207.025" y1="3.025" x2="207.025" y2="16.025"/>
        <path d="M193.525,2.525 A0.5,0.5 0 0,0 193.025,3.025 "/>
        <path d="M207.025,3.025 A0.5,0.5 0 0,0 206.525,2.525 "/>
        <path d="M193.025,16.025 A0.5,0.5 0 0,0 193.525,16.525 "/>
        <path d="M206.525,16.525 A0.5,0.5 0 0,0 207.025,16.025 "/>
        <line x1="212.575" y1="2.525" x2="225.575" y2="2.525"/>
        <line x1="212.575" y1="16.525" x2="225.575" y2="16.525"/>
        <line x1="212.075" y1="3.025" x2="212.075" y2="16.025"/>
        <line x1="226.075" y1="3.025" x2="226.075" y2="16.025"/>
        <path d="M212.575,2.525 A0.5,0.5 0 0,0 212.075,3.025 "/>
        <path d="M226.075,3.025 A0.5,0.5 0 0,0 225.575,2.525 "/>
        <path d="M212.075,16.025 A0.5,0.5 0 0,0 212.575,16.525 "/>
        <path d="M225.575,16.525 A0.5,0.5 0 0,0 226.075,16.025 "/>
        <line x1="231.625" y1="2.525" x2="244.625" y2="2.525"/>
        <line x1="231.625" y1="16.525" x2="244.625" y2="16.525"/>
        <line x1="231.125" y1="3.025" x2="231.125" y2="16.025"/>
        <line x1="245.125" y1="3.025" x2="245.125" y2="16.025"/>
        <path d="M231.625,2.525 A0.5,0.5 0 0,0 231.125,3.025 "/>
        <path d="M245.125,3.025 A0.5,0.5 0 0,0 244.625,2.525 "/>
        <path d="M231.125,16.025 A0.5,0.5 0 0,0 231.625,16.525 "/>
        <path d="M244.625,16.525 A0.5,0.5 0 0,0 245.125,16.025 "/>
        <line x1="250.675" y1="2.525" x2="263.675" y2="2.525"/>
        <line x1="250.675" y1="16.525" x2="263.675" y2="16.525"/>
        <line x1="250.175" y1="3.025" x2="250.175" y2="16.025"/>
        <line x1="264.175" y1="3.025" x2="264.175" y2="16.025"/>
        <path d="M250.675,2.525 A0.5,0.5 0 0,0 250.175,3.025 "/>
        <path d="M264.175,3.025 A0.5,0.5 0 0,0 263.675,2.525 "/>
        <path d="M250.175,16.025 A0.5,0.5 0 0,0 250.675,16.525 "/>
        <path d="M263.675,16.525 A0.5,0.5 0 0,0 264.175,16.025 "/>
        <line x1="269.725" y1="2.525" x2="282.725" y2="2.525"/>
        <line x1="269.725" y1="16.525" x2="282.725" y2="16.525"/>
        <line x1="269.225" y1="3.025" x2="269.225" y2="16.025"/>
        <line x1="283.225" y1="3.025" x2="283.225" y2="16.025"/>
        <path d="M269.725,2.525 A0.5,0.5 0 0,0 269.225,3.025 "/>
        <path d="M283.225,3.025 A0.5,0.5 0 0,0 282.725,2.525 "/>
        <path d="M269.225,16.025 A0.5,0.5 0 0,0 269.725,16.525 "/>
        <path d="M282.725,16.525 A0.5,0.5 0 0,0 283.225,16.025 "/>
        <line x1="7.7875" y1="21.575" x2="20.7875" y2="21.575"/>
        <line x1="7.7875" y1="35.575" x2="20.7875" y2="35.575"/>
        <line x1="7.2875" y1="22.075" x2="7.2875" y2="35.075"/>
        <line x1="21.2875" y1="22.075" x2="21.2875" y2="35.075"/>
        <path d="M7.7875,21.575 A0.5,0.5 0 0,0 7.2875,22.075 "/>
        <path d="M21.2875,22.075 A0.5,0.5 0 0,0 20.7875,21.575 "/>
        <path d="M7.2875,35.075 A0.5,0.5 0 0,0 7.7875,35.575 "/>
        <path d="M20.7875,35.575 A0.5,0.5 0 0,0 21.2875,35.075 "/>
        <line x1="31.6" y1="21.575" x2="44.6" y2="21.575"/>
        <line x1="31.6" y1="35.575" x2="44.6" y2="35.575"/>
        <line x1="31.1" y1="22.075" x2="31.1" y2="35.075"/>
        <line x1="45.1" y1="22.075" x2="45.1" y2="35.075"/>
        <path d="M31.6,21.575 A0.5,0.5 0 0,0 31.1,22.075 "/>
        <path d="M45.1,22.075 A0.5,0.5 0 0,0 44.6,21.575 "/>
        <path d="M31.1,35.075 A0.5,0.5 0 0,0 31.6,35.575 "/>
        <path d="M44.6,35.575 A0.5,0.5 0 0,0 45.1,35.075 "/>
        <line x1="50.65" y1="21.575" x2="63.65" y2="21.575"/>
        <line x1="50.65" y1="35.575" x2="63.65" y2="35.575"/>
        <line x1="50.15" y1="22.075" x2="50.15" y2="35.075"/>
        <line x1="64.15" y1="22.075" x2="64.15" y2="35.075"/>
        <path d="M50.65,21.575 A0.5,0.5 0 0,0 50.15,22.075 "/>
        <path d="M64.15,22.075 A0.5,0.5 0 0,0 63.65,21.575 "/>
        <path d="M50.15,35.075 A0.5,0.5 0 0,0 50.65,35.575 "/>
        <path d="M63.65,35.575 A0.5,0.5 0 0,0 64.15,35.075 "/>
        <line x1="69.7" y1="21.575" x2="82.7" y2="21.575"/>
        <line x1="69.7" y1="35.575" x2="82.7" y2="35.575"/>
        <line x1="69.2" y1="22.075" x2="69.2" y2="35.075"/>
        <line x1="83.2" y1="22.075" x2="83.2" y2="35.075"/>
        <path d="M69.7,21.575 A0.5,0.5 0 0,0 69.2,22.075 "/>
        <path d="M83.2,22.075 A0.5,0.5 0 0,0 82.7,21.575 "/>
        <path d="M69.2,35.075 A0.5,0.5 0 0,0 69.7,35.575 "/>
        <path d="M82.7,35.575 A0.5,0.5 0 0,0 83.2,35.075 "/>
        <line x1="88.75" y1="21.575" x2="101.75" y2="21.575"/>
        <line x1="88.75" y1="35.575" x2="101.75" y2="35.575"/>
        <line x1="88.25" y1="22.075" x2="88.25" y2="35.075"/>
        <line x1="102.25" y1="22.075" x2="102.25" y2="35.075"/>
        <path d="M88.75,21.575 A0.5,0.5 0 0,0 88.25,22.075 "/>
        <path d="M102.25,22.075 A0.5,0.5 0 0,0 101.75,21.575 "/>
        <path d="M88.25,35.075 A0.5,0.5 0 0,0 88.75,35.575 "/>
        <path d="M101.75,35.575 A0.5,0.5 0 0,0 102.25,35.075 "/>
        <line x1="107.8" y1="21.575" x2="120.8" y2="21.575"/>
        <line x1="107.8" y1="35.575" x2="120.8" y2="35.575"/>
        <line x1="107.3" y1="22.075" x2="107.3" y2="35.075"/>
        <line x1="121.3" y1="22.075" x2="121.3" y2="35.075"/>
        <path d="M107.8,21.575 A0.5,0.5 0 0,0 107.3,22.075 "/>
        <path d="M121.3,22.075 A0.5,0.5 0 0,0 120.8,21.575 "/>
        <path d="M107.3,35.075 A0.5,0.5 0 0,0 107.8,35.575 "/>
        <path d="M120.8,35.575 A0.5,0.5 0 0,0 121.3,35.075 "/>
        <line x1="126.85" y1="21.575" x2="139.85" y2="21.575"/>
        <line x1="126.85" y1="35.575" x2="139.85" y2="35.575"/>
        <line x1="126.35" y1="22.075" x2="126.35" y2="35.075"/>
        <line x1="140.35" y1="22.075" x2="140.35" y2="35.075"/>
        <path d="M126.85,21.575 A0.5,0.5 0 0,0 126.35,22.075 "/>
        <path d="M140.35,22.075 A0.5,0.5 0 0,0 139.85,21.575 "/>
        <path d="M126.35,35.075 A0.5,0.5 0 0,0 126.85,35.575 "/>
        <path d="M139.85,35.575 A0.5,0.5 0 0,0 140.35,35.075 "/>
        <line x1="145.9" y1="21.575" x2="158.9" y2="21.575"/>
        <line x1="145.9" y1="35.575" x2="158.9" y2="35.575"/>
        <line x1="145.4" y1="22.075" x2="145.4" y2="35.075"/>
        <line x1="159.4" y1="22.075" x2="159.4" y2="35.075"/>
        <path d="M145.9,21.575 A0.5,0.5 0 0,0 145.4,22.075 "/>
        <path d="M159.4,22.075 A0.5,0.5 0 0,0 158.9,21.575 "/>
        <path d="M145.4,35.075 A0.5,0.5 0 0,0 145.9,35.575 "/>
        <path d="M158.9,35.575 A0.5,0.5 0 0,0 159.4,35.075 "/>
        <line x1="164.95" y1="21.575" x2="177.95" y2="21.575"/>
        <line x1="164.95" y1="35.575" x2="177.95" y2="35.575"/>
        <line x1="164.45" y1="22.075" x2="164.45" y2="35.075"/>
        <line x1="178.45" y1="22.075" x2="178.45" y2="35.075"/>
        <path d="M164.95,21.575 A0.5,0.5 0 0,0 164.45,22.075 "/>
        <path d="M178.45,22.075 A0.5,0.5 0 0,0 177.95,21.575 "/>
        <path d="M164.45,35.075 A0.5,0.5 0 0,0 164.95,35.575 "/>
        <path d="M177.95,35.575 A0.5,0.5 0 0,0 178.45,35.075 "/>
        <line x1="184" y1="21.575" x2="197" y2="21.575"/>
        <line x1="184" y1="35.575" x2="197" y2="35.575"/>
        <line x1="183.5" y1="22.075" x2="183.5" y2="35.075"/>
        <line x1="197.5" y1="22.075" x2="197.5" y2="35.075"/>
        <path d="M184,21.575 A0.5,0.5 0 0,0 183.5,22.075 "/>
        <path d="M197.5,22.075 A0.5,0.5 0 0,0 197,21.575 "/>
        <path d="M183.5,35.075 A0.5,0.5 0 0,0 184,35.575 "/>
        <path d="M197,35.575 A0.5,0.5 0 0,0 197.5,35.075 "/>
        <line x1="203.05" y1="21.575" x2="216.05" y2="21.575"/>
        <line x1="203.05" y1="35.575" x2="216.05" y2="35.575"/>
        <line x1="202.55" y1="22.075" x2="202.55" y2="35.075"/>
        <line x1="216.55" y1="22.075" x2="216.55" y2="35.075"/>
        <path d="M203.05,21.575 A0.5,0.5 0 0,0 202.55,22.075 "/>
        <path d="M216.55,22.075 A0.5,0.5 0 0,0 216.05,21.575 "/>
        <path d="M202.55,35.075 A0.5,0.5 0 0,0 203.05,35.575 "/>
        <path d="M216.05,35.575 A0.5,0.5 0 0,0 216.55,35.075 "/>
        <line x1="222.1" y1="21.575" x2="235.1" y2="21.575"/>
        <line x1="222.1" y1="35.575" x2="235.1" y2="35.575"/>
        <line x1="221.6" y1="22.075" x2="221.6" y2="35.075"/>
        <line x1="235.6" y1="22.075" x2="235.6" y2="35.075"/>
        <path d="M222.1,21.575 A0.5,0.5 0 0,0 221.6,22.075 "/>
        <path d="M235.6,22.075 A0.5,0.5 0 0,0 235.1,21.575 "/>
        <path d="M221.6,35.075 A0.5,0.5 0 0,0 222.1,35.575 "/>
        <path d="M235.1,35.575 A0.5,0.5 0 0,0 235.6,35.075 "/>
        <line x1="241.15" y1="21.575" x2="254.15" y2="21.575"/>
        <line x1="241.15" y1="35.575" x2="254.15" y2="35.575"/>
        <line x1="240.65" y1="22.075" x2="240.65" y2="35.075"/>
        <line x1="254.65" y1="22.075" x2="254.65" y2="35.075"/>
        <path d="M241.15,21.575 A0.5,0.5 0 0,0 240.65,22.075 "/>
        <path d="M254.65,22.075 A0.5,0.5 0 0,0 254.15,21.575 "/>
        <path d="M240.65,35.075 A0.5,0.5 0 0,0 241.15,35.575 "/>
        <path d="M254.15,35.575 A0.5,0.5 0 0,0 254.65,35.075 "/>
        <line x1="267.34375" y1="21.575" x2="280.34375" y2="21.575"/>
        <line x1="267.34375" y1="35.575" x2="280.34375" y2="35.575"/>
        <line x1="266.84375" y1="22.075" x2="266.84375" y2="35.075"/>
        <line x1="280.84375" y1="22.075" x2="280.84375" y2="35.075"/>
        <path d="M267.34375,21.575 A0.5,0.5 0 0,0 266.84375,22.075 "/>
        <path d="M280.84375,22.075 A0.5,0.5 0 0,0 280.34375,21.575 "/>
        <path d="M266.84375,35.075 A0.5,0.5 0 0,0 267.34375,35.575 "/>
        <path d="M280.34375,35.575 A0.5,0.5 0 0,0 280.84375,35.075 "/>
        <line x1="10.16875" y1="40.625" x2="23.16875" y2="40.625"/>
        <line x1="10.16875" y1="54.625" x2="23.16875" y2="54.625"/>
        <line x1="9.66875" y1="41.125" x2="9.66875" y2="54.125"/>
        <line x1="23.66875" y1="41.125" x2="23.66875" y2="54.125"/>
        <path d="M10.16875,40.625 A0.5,0.5 0 0,0 9.66875,41.125 "/>
        <path d="M23.66875,41.125 A0.5,0.5 0 0,0 23.16875,40.625 "/>
        <path d="M9.66875,54.125 A0.5,0.5 0 0,0 10.16875,54.625 "/>
        <path d="M23.16875,54.625 A0.5,0.5 0 0,0 23.66875,54.125 "/>
        <line x1="36.3625" y1="40.625" x2="49.3625" y2="40.625"/>
        <line x1="36.3625" y1="54.625" x2="49.3625" y2="54.625"/>
        <line x1="35.8625" y1="41.125" x2="35.8625" y2="54.125"/>
        <line x1="49.8625" y1="41.125" x2="49.8625" y2="54.125"/>
        <path d="M36.3625,40.625 A0.5,0.5 0 0,0 35.8625,41.125 "/>
        <path d="M49.8625,41.125 A0.5,0.5 0 0,0 49.3625,40.625 "/>
        <path d="M35.8625,54.125 A0.5,0.5 0 0,0 36.3625,54.625 "/>
        <path d="M49.3625,54.625 A0.5,0.5 0 0,0 49.8625,54.125 "/>
        <line x1="55.4125" y1="40.625" x2="68.4125" y2="40.625"/>
        <line x1="55.4125" y1="54.625" x2="68.4125" y2="54.625"/>
        <line x1="54.9125" y1="41.125" x2="54.9125" y2="54.125"/>
        <line x1="68.9125" y1="41.125" x2="68.9125" y2="54.125"/>
        <path d="M55.4125,40.625 A0.5,0.5 0 0,0 54.9125,41.125 "/>
        <path d="M68.9125,41.125 A0.5,0.5 0 0,0 68.4125,40.625 "/>
        <path d="M54.9125,54.125 A0.5,0.5 0 0,0 55.4125,54.625 "/>
        <path d="M68.4125,54.625 A0.5,0.5 0 0,0 68.9125,54.125 "/>
        <line x1="74.4625" y1="40.625" x2="87.4625" y2="40.625"/>
        <line x1="74.4625" y1="54.625" x2="87.4625" y2="54.625"/>
        <line x1="73.9625" y1="41.125" x2="73.9625" y2="54.125"/>
        <line x1="87.9625" y1="41.125" x2="87.9625" y2="54.125"/>
        <path d="M74.4625,40.625 A0.5,0.5 0 0,0 73.9625,41.125 "/>
        <path d="M87.9625,41.125 A0.5,0.5 0 0,0 87.4625,40.625 "/>
        <path d="M73.9625,54.125 A0.5,0.5 0 0,0 74.4625,54.625 "/>
        <path d="M87.4625,54.625 A0.5,0.5 0 0,0 87.9625,54.125 "/>
        <line x1="93.5125" y1="40.625" x2="106.5125" y2="40.625"/>
        <line x1="93.5125" y1="54.625" x2="106.5125" y2="54.625"/>
        <line x1="93.0125" y1="41.125" x2="93.0125" y2="54.125"/>
        <line x1="107.0125" y1="41.125" x2="107.0125" y2="54.125"/>
        <path d="M93.5125,40.625 A0.5,0.5 0 0,0 93.0125,41.125 "/>
        <path d="M107.0125,41.125 A0.5,0.5 0 0,0 106.5125,40.625 "/>
        <path d="M93.0125,54.125 A0.5,0.5 0 0,0 93.5125,54.625 "/>
        <path d="M106.5125,54.625 A0.5,0.5 0 0,0 107.0125,54.125 "/>
        <line x1="112.5625" y1="40.625" x2="125.5625" y2="40.625"/>
        <line x1="112.5625" y1="54.625" x2="125.5625" y2="54.625"/>
        <line x1="112.0625" y1="41.125" x2="112.0625" y2="54.125"/>
        <line x1="126.0625" y1="41.125" x2="126.0625" y2="54.125"/>
        <path d="M112.5625,40.625 A0.5,0.5 0 0,0 112.0625,41.125 "/>
        <path d="M126.0625,41.125 A0.5,0.5 0 0,0 125.5625,40.625 "/>
        <path d="M112.0625,54.125 A0.5,0.5 0 0,0 112.5625,54.625 "/>
        <path d="M125.5625,54.625 A0.5,0.5 0 0,0 126.0625,54.125 "/>
        <line x1="131.6125" y1="40.625" x2="144.6125" y2="40.625"/>
        <line x1="131.6125" y1="54.625" x2="144.6125" y2="54.625"/>
        <line x1="131.1125" y1="41.125" x2="131.1125" y2="54.125"/>
        <line x1="145.1125" y1="41.125" x2="145.1125" y2="54.125"/>
        <path d="M131.6125,40.625 A0.5,0.5 0 0,0 131.1125,41.125 "/>
        <path d="M145.1125,41.125 A0.5,0.5 0 0,0 144.6125,40.625 "/>
        <path d="M131.1125,54.125 A0.5,0.5 0 0,0 131.6125,54.625 "/>
        <path d="M144.6125,54.625 A0.5,0.5 0 0,0 145.1125,54.125 "/>
        <line x1="150.6625" y1="40.625" x2="163.6625" y2="40.625"/>
        <line x1="150.6625" y1="54.625" x2="163.6625" y2="54.625"/>
        <line x1="150.1625" y1="41.125" x2="150.1625" y2="54.125"/>
        <line x1="164.1625" y1="41.125" x2="164.1625" y2="54.125"/>
        <path d="M150.6625,40.625 A0.5,0.5 0 0,0 150.1625,41.125 "/>
        <path d="M164.1625,41.125 A0.5,0.5 0 0,0 163.6625,40.625 "/>
        <path d="M150.1625,54.125 A0.5,0.5 0 0,0 150.6625,54.625 "/>
        <path d="M163.6625,54.625 A0.5,0.5 0 0,0 164.1625,54.125 "/>
        <line x1="169.7125" y1="40.625" x2="182.7125" y2="40.625"/>
        <line x1="169.7125" y1="54.625" x2="182.7125" y2="54.625"/>
        <line x1="169.2125" y1="41.125" x2="169.2125" y2="54.125"/>
        <line x1="183.2125" y1="41.125" x2="183.2125" y2="54.125"/>
        <path d="M169.7125,40.625 A0.5,0.5 0 0,0 169.2125,41.125 "/>
        <path d="M183.2125,41.125 A0.5,0.5 0 0,0 182.7125,40.625 "/>
        <path d="M169.2125,54.125 A0.5,0.5 0 0,0 169.7125,54.625 "/>
        <path d="M182.7125,54.625 A0.5,0.5 0 0,0 183.2125,54.125 "/>
        <line x1="188.7625" y1="40.625" x2="201.7625" y2="40.625"/>
        <line x1="188.7625" y1="54.625" x2="201.7625" y2="54.625"/>
        <line x1="188.2625" y1="41.125" x2="188.2625" y2="54.125"/>
        <line x1="202.2625" y1="41.125" x2="202.2625" y2="54.125"/>
        <path d="M188.7625,40.625 A0.5,0.5 0 0,0 188.2625,41.125 "/>
        <path d="M202.2625,41.125 A0.5,0.5 0 0,0 201.7625,40.625 "/>
        <path d="M188.2625,54.125 A0.5,0.5 0 0,0 188.7625,54.625 "/>
        <path d="M201.7625,54.625 A0.5,0.5 0 0,0 202.2625,54.125 "/>
        <line x1="207.8125" y1="40.625" x2="220.8125" y2="40.625"/>
        <line x1="207.8125" y1="54.625" x2="220.8125" y2="54.625"/>
        <line x1="207.3125" y1="41.125" x2="207.3125" y2="54.125"/>
        <line x1="221.3125" y1="41.125" x2="221.3125" y2="54.125"/>
        <path d="M207.8125,40.625 A0.5,0.5 0 0,0 207.3125,41.125 "/>
        <path d="M221.3125,41.125 A0.5,0.5 0 0,0 220.8125,40.625 "/>
        <path d="M207.3125,54.125 A0.5,0.5 0 0,0 207.8125,54.625 "/>
        <path d="M220.8125,54.625 A0.5,0.5 0 0,0 221.3125,54.125 "/>
        <line x1="226.8625" y1="40.625" x2="239.8625" y2="40.625"/>
        <line x1="226.8625" y1="54.625" x2="239.8625" y2="54.625"/>
        <line x1="226.3625" y1="41.125" x2="226.3625" y2="54.125"/>
        <line x1="240.3625" y1="41.125" x2="240.3625" y2="54.125"/>
        <path d="M226.8625,40.625 A0.5,0.5 0 0,0 226.3625,41.125 "/>
        <path d="M240.3625,41.125 A0.5,0.5 0 0,0 239.8625,40.625 "/>
        <path d="M226.3625,54.125 A0.5,0.5 0 0,0 226.8625,54.625 "/>
        <path d="M239.8625,54.625 A0.5,0.5 0 0,0 240.3625,54.125 "/>
        <line x1="245.9125" y1="40.625" x2="258.9125" y2="40.625"/>
        <line x1="245.9125" y1="54.625" x2="258.9125" y2="54.625"/>
        <line x1="245.4125" y1="41.125" x2="245.4125" y2="54.125"/>
        <line x1="259.4125" y1="41.125" x2="259.4125" y2="54.125"/>
        <path d="M245.9125,40.625 A0.5,0.5 0 0,0 245.4125,41.125 "/>
        <path d="M259.4125,41.125 A0.5,0.5 0 0,0 258.9125,40.625 "/>
        <path d="M245.4125,54.125 A0.5,0.5 0 0,0 245.9125,54.625 "/>
        <path d="M258.9125,54.625 A0.5,0.5 0 0,0 259.4125,54.125 "/>
        <line x1="267.34375" y1="40.625" x2="280.34375" y2="40.625"/>
        <line x1="267.34375" y1="54.625" x2="280.34375" y2="54.625"/>
        <line x1="266.84375" y1="41.125" x2="266.84375" y2="54.125"/>
        <line x1="280.84375" y1="41.125" x2="280.84375" y2="54.125"/>
        <path d="M267.34375,40.625 A0.5,0.5 0 0,0 266.84375,41.125 "/>
        <path d="M280.84375,41.125 A0.5,0.5 0 0,0 280.34375,40.625 "/>
        <path d="M266.84375,54.125 A0.5,0.5 0 0,0 267.34375,54.625 "/>
        <path d="M280.34375,54.625 A0.5,0.5 0 0,0 280.84375,54.125 "/>
        <line x1="5.40625" y1="59.675" x2="18.40625" y2="59.675"/>
        <line x1="5.40625" y1="73.675" x2="18.40625" y2="73.675"/>
        <line x1="4.90625" y1="60.175" x2="4.90625" y2="73.175"/>
        <line x1="18.90625" y1="60.175" x2="18.90625" y2="73.175"/>
        <path d="M5.40625,59.675 A0.5,0.5 0 0,0 4.90625,60.175 "/>
        <path d="M18.90625,60.175 A0.5,0.5 0 0,0 18.40625,59.675 "/>
        <path d="M4.90625,73.175 A0.5,0.5 0 0,0 5.40625,73.675 "/>
        <path d="M18.40625,73.675 A0.5,0.5 0 0,0 18.90625,73.175 "/>
        <line x1="26.8375" y1="59.675" x2="39.8375" y2="59.675"/>
        <line x1="26.8375" y1="73.675" x2="39.8375" y2="73.675"/>
        <line x1="26.3375" y1="60.175" x2="26.3375" y2="73.175"/>
        <line x1="40.3375" y1="60.175" x2="40.3375" y2="73.175"/>
        <path d="M26.8375,59.675 A0.5,0.5 0 0,0 26.3375,60.175 "/>
        <path d="M40.3375,60.175 A0.5,0.5 0 0,0 39.8375,59.675 "/>
        <path d="M26.3375,73.175 A0.5,0.5 0 0,0 26.8375,73.675 "/>
        <path d="M39.8375,73.675 A0.5,0.5 0 0,0 40.3375,73.175 "/>
        <line x1="45.8875" y1="59.675" x2="58.8875" y2="59.675"/>
        <line x1="45.8875" y1="73.675" x2="58.8875" y2="73.675"/>
        <line x1="45.3875" y1="60.175" x2="45.3875" y2="73.175"/>
        <line x1="59.3875" y1="60.175" x2="59.3875" y2="73.175"/>
        <path d="M45.8875,59.675 A0.5,0.5 0 0,0 45.3875,60.175 "/>
        <path d="M59.3875,60.175 A0.5,0.5 0 0,0 58.8875,59.675 "/>
        <path d="M45.3875,73.175 A0.5,0.5 0 0,0 45.8875,73.675 "/>
        <path d="M58.8875,73.675 A0.5,0.5 0 0,0 59.3875,73.175 "/>
        <line x1="64.9375" y1="59.675" x2="77.9375" y2="59.675"/>
        <line x1="64.9375" y1="73.675" x2="77.9375" y2="73.675"/>
        <line x1="64.4375" y1="60.175" x2="64.4375" y2="73.175"/>
        <line x1="78.4375" y1="60.175" x2="78.4375" y2="73.175"/>
        <path d="M64.9375,59.675 A0.5,0.5 0 0,0 64.4375,60.175 "/>
        <path d="M78.4375,60.175 A0.5,0.5 0 0,0 77.9375,59.675 "/>
        <path d="M64.4375,73.175 A0.5,0.5 0 0,0 64.9375,73.675 "/>
        <path d="M77.9375,73.675 A0.5,0.5 0 0,0 78.4375,73.175 "/>
        <line x1="83.9875" y1="59.675" x2="96.9875" y2="59.675"/>
        <line x1="83.9875" y1="73.675" x2="96.9875" y2="73.675"/>
        <line x1="83.4875" y1="60.175" x2="83.4875" y2="73.175"/>
        <line x1="97.4875" y1="60.175" x2="97.4875" y2="73.175"/>
        <path d="M83.9875,59.675 A0.5,0.5 0 0,0 83.4875,60.175 "/>
        <path d="M97.4875,60.175 A0.5,0.5 0 0,0 96.9875,59.675 "/>
        <path d="M83.4875,73.175 A0.5,0.5 0 0,0 83.9875,73.675 "/>
        <path d="M96.9875,73.675 A0.5,0.5 0 0,0 97.4875,73.175 "/>
        <line x1="103.0375" y1="59.675" x2="116.0375" y2="59.675"/>
        <line x1="103.0375" y1="73.675" x2="116.0375" y2="73.675"/>
        <line x1="102.5375" y1="60.175" x2="102.5375" y2="73.175"/>
        <line x1="116.5375" y1="60.175" x2="116.5375" y2="73.175"/>
        <path d="M103.0375,59.675 A0.5,0.5 0 0,0 102.5375,60.175 "/>
        <path d="M116.5375,60.175 A0.5,0.5 0 0,0 116.0375,59.675 "/>
        <path d="M102.5375,73.175 A0.5,0.5 0 0,0 103.0375,73.675 "/>
        <path d="M116.0375,73.675 A0.5,0.5 0 0,0 116.5375,73.175 "/>
        <line x1="122.0875" y1="59.675" x2="135.0875" y2="59.675"/>
        <line x1="122.0875" y1="73.675" x2="135.0875" y2="73.675"/>
        <line x1="121.5875" y1="60.175" x2="121.5875" y2="73.175"/>
        <line x1="135.5875" y1="60.175" x2="135.5875" y2="73.175"/>
        <path d="M122.0875,59.675 A0.5,0.5 0 0,0 121.5875,60.175 "/>
        <path d="M135.5875,60.175 A0.5,0.5 0 0,0 135.0875,59.675 "/>
        <path d="M121.5875,73.175 A0.5,0.5 0 0,0 122.0875,73.675 "/>
        <path d="M135.0875,73.675 A0.5,0.5 0 0,0 135.5875,73.175 "/>
        <line x1="141.1375" y1="59.675" x2="154.1375" y2="59.675"/>
        <line x1="141.1375" y1="73.675" x2="154.1375" y2="73.675"/>
        <line x1="140.6375" y1="60.175" x2="140.6375" y2="73.175"/>
        <line x1="154.6375" y1="60.175" x2="154.6375" y2="73.175"/>
        <path d="M141.1375,59.675 A0.5,0.5 0 0,0 140.6375,60.175 "/>
        <path d="M154.6375,60.175 A0.5,0.5 0 0,0 154.1375,59.675 "/>
        <path d="M140.6375,73.175 A0.5,0.5 0 0,0 141.1375,73.675 "/>
        <path d="M154.1375,73.675 A0.5,0.5 0 0,0 154.6375,73.175 "/>
        <line x1="160.1875" y1="59.675" x2="173.1875" y2="59.675"/>
        <line x1="160.1875" y1="73.675" x2="173.1875" y2="73.675"/>
        <line x1="159.6875" y1="60.175" x2="159.6875" y2="73.175"/>
        <line x1="173.6875" y1="60.175" x2="173.6875" y2="73.175"/>
        <path d="M160.1875,59.675 A0.5,0.5 0 0,0 159.6875,60.175 "/>
        <path d="M173.6875,60.175 A0.5,0.5 0 0,0 173.1875,59.675 "/>
        <path d="M159.6875,73.175 A0.5,0.5 0 0,0 160.1875,73.675 "/>
        <path d="M173.1875,73.675 A0.5,0.5 0 0,0 173.6875,73.175 "/>
        <line x1="179.2375" y1="59.675" x2="192.2375" y2="59.675"/>
        <line x1="179.2375" y1="73.675" x2="192.2375" y2="73.675"/>
        <line x1="178.7375" y1="60.175" x2="178.7375" y2="73.175"/>
        <line x1="192.7375" y1="60.175" x2="192.7375" y2="73.175"/>
        <path d="M179.2375,59.675 A0.5,0.5 0 0,0 178.7375,60.175 "/>
        <path d="M192.7375,60.175 A0.5,0.5 0 0,0 192.2375,59.675 "/>
        <path d="M178.7375,73.175 A0.5,0.5 0 0,0 179.2375,73.675 "/>
        <path d="M192.2375,73.675 A0.5,0.5 0 0,0 192.7375,73.175 "/>
        <line x1="198.2875" y1="59.675" x2="211.2875" y2="59.675"/>
        <line x1="198.2875" y1="73.675" x2="211.2875" y2="73.675"/>
        <line x1="197.7875" y1="60.175" x2="197.7875" y2="73.175"/>
        <line x1="211.7875" y1="60.175" x2="211.7875" y2="73.175"/>
        <path d="M198.2875,59.675 A0.5,0.5 0 0,0 197.7875,60.175 "/>
        <path d="M211.7875,60.175 A0.5,0.5 0 0,0 211.2875,59.675 "/>
        <path d="M197.7875,73.175 A0.5,0.5 0 0,0 198.2875,73.675 "/>
        <path d="M211.2875,73.675 A0.5,0.5 0 0,0 211.7875,73.175 "/>
        <line x1="217.3375" y1="59.675" x2="230.3375" y2="59.675"/>
        <line x1="217.3375" y1="73.675" x2="230.3375" y2="73.675"/>
        <line x1="216.8375" y1="60.175" x2="216.8375" y2="73.175"/>
        <line x1="230.8375" y1="60.175" x2="230.8375" y2="73.175"/>
        <path d="M217.3375,59.675 A0.5,0.5 0 0,0 216.8375,60.175 "/>
        <path d="M230.8375,60.175 A0.5,0.5 0 0,0 230.3375,59.675 "/>
        <path d="M216.8375,73.175 A0.5,0.5 0 0,0 217.3375,73.675 "/>
        <path d="M230.3375,73.675 A0.5,0.5 0 0,0 230.8375,73.175 "/>
        <line x1="243.53125" y1="59.675" x2="256.53125" y2="59.675"/>
        <line x1="243.53125" y1="73.675" x2="256.53125" y2="73.675"/>
        <line x1="243.03125" y1="60.175" x2="243.03125" y2="73.175"/>
        <line x1="257.03125" y1="60.175" x2="257.03125" y2="73.175"/>
        <path d="M243.53125,59.675 A0.5,0.5 0 0,0 243.03125,60.175 "/>
        <path d="M257.03125,60.175 A0.5,0.5 0 0,0 256.53125,59.675 "/>
        <path d="M243.03125,73.175 A0.5,0.5 0 0,0 243.53125,73.675 "/>
        <path d="M256.53125,73.675 A0.5,0.5 0 0,0 257.03125,73.175 "/>
        <line x1="269.725" y1="59.675" x2="282.725" y2="59.675"/>
        <line x1="269.725" y1="73.675" x2="282.725" y2="73.675"/>
        <line x1="269.225" y1="60.175" x2="269.225" y2="73.175"/>
        <line x1="283.225" y1="60.175" x2="283.225" y2="73.175"/>
        <path d="M269.725,59.675 A0.5,0.5 0 0,0 269.225,60.175 "/>
        <path d="M283.225,60.175 A0.5,0.5 0 0,0 282.725,59.675 "/>
        <path d="M269.225,73.175 A0.5,0.5 0 0,0 269.725,73.675 "/>
        <path d="M282.725,73.675 A0.5,0.5 0 0,0 283.225,73.175 "/>
        <line x1="36.3625" y1="78.725" x2="49.3625" y2="78.725"/>
        <line x1="36.3625" y1="92.725" x2="49.3625" y2="92.725"/>
        <line x1="35.8625" y1="79.225" x2="35.8625" y2="92.225"/>
        <line x1="49.8625" y1="79.225" x2="49.8625" y2="92.225"/>
        <path d="M36.3625,78.725 A0.5,0.5 0 0,0 35.8625,79.225 "/>
        <path d="M49.8625,79.225 A0.5,0.5 0 0,0 49.3625,78.725 "/>
        <path d="M35.8625,92.225 A0.5,0.5 0 0,0 36.3625,92.725 "/>
        <path d="M49.3625,92.725 A0.5,0.5 0 0,0 49.8625,92.225 "/>
        <line x1="64.9375" y1="78.725" x2="77.9375" y2="78.725"/>
        <line x1="64.9375" y1="92.725" x2="77.9375" y2="92.725"/>
        <line x1="64.4375" y1="79.225" x2="64.4375" y2="92.225"/>
        <line x1="78.4375" y1="79.225" x2="78.4375" y2="92.225"/>
        <path d="M64.9375,78.725 A0.5,0.5 0 0,0 64.4375,79.225 "/>
        <path d="M78.4375,79.225 A0.5,0.5 0 0,0 77.9375,78.725 "/>
        <path d="M64.4375,92.225 A0.5,0.5 0 0,0 64.9375,92.725 "/>
        <path d="M77.9375,92.725 A0.5,0.5 0 0,0 78.4375,92.225 "/>
        <line x1="136.375" y1="78.725" x2="149.375" y2="78.725"/>
        <line x1="136.375" y1="92.725" x2="149.375" y2="92.725"/>
        <line x1="135.875" y1="79.225" x2="135.875" y2="92.225"/>
        <line x1="149.875" y1="79.225" x2="149.875" y2="92.225"/>
        <path d="M136.375,78.725 A0.5,0.5 0 0,0 135.875,79.225 "/>
        <path d="M149.875,79.225 A0.5,0.5 0 0,0 149.375,78.725 "/>
        <path d="M135.875,92.225 A0.5,0.5 0 0,0 136.375,92.725 "/>
        <path d="M149.375,92.725 A0.5,0.5 0 0,0 149.875,92.225 "/>
        <line x1="178.1" y1="79.725" x2="183.85" y2="79.725"/>
        <line x1="178.1" y1="93.725" x2="183.85" y2="93.725"/>
        <line x1="177.6" y1="80.225" x2="177.6" y2="93.225"/>
        <line x1="184.35" y1="80.225" x2="184.35" y2="93.225"/>
        <path d="M178.1,79.725 A0.5,0.5 0 0,0 177.6,80.225 "/>
        <path d="M184.35,80.225 A0.5,0.5 0 0,0 183.85,79.725 "/>
        <path d="M177.6,93.225 A0.5,0.5 0 0,0 178.1,93.725 "/>
        <path d="M183.85,93.725 A0.5,0.5 0 0,0 184.35,93.225 "/>
        <line x1="82.85" y1="79.725" x2="88.6" y2="79.725"/>
        <line x1="82.85" y1="93.725" x2="88.6" y2="93.725"/>
        <line x1="82.35" y1="80.225" x2="82.35" y2="93.225"/>
        <line x1="89.1" y1="80.225" x2="89.1" y2="93.225"/>
        <path d="M82.85,79.725 A0.5,0.5 0 0,0 82.35,80.225 "/>
        <path d="M89.1,80.225 A0.5,0.5 0 0,0 88.6,79.725 "/>
        <path d="M82.35,93.225 A0.5,0.5 0 0,0 82.85,93.725 "/>
        <path d="M88.6,93.725 A0.5,0.5 0 0,0 89.1,93.225 "/>
        <line x1="207.8125" y1="78.725" x2="220.8125" y2="78.725"/>
        <line x1="207.8125" y1="92.725" x2="220.8125" y2="92.725"/>
        <line x1="207.3125" y1="79.225" x2="207.3125" y2="92.225"/>
        <line x1="221.3125" y1="79.225" x2="221.3125" y2="92.225"/>
        <path d="M207.8125,78.725 A0.5,0.5 0 0,0 207.3125,79.225 "/>
        <path d="M221.3125,79.225 A0.5,0.5 0 0,0 220.8125,78.725 "/>
        <path d="M207.3125,92.225 A0.5,0.5 0 0,0 207.8125,92.725 "/>
        <path d="M220.8125,92.725 A0.5,0.5 0 0,0 221.3125,92.225 "/>
        <line x1="236.3875" y1="78.725" x2="249.3875" y2="78.725"/>
        <line x1="236.3875" y1="92.725" x2="249.3875" y2="92.725"/>
        <line x1="235.8875" y1="79.225" x2="235.8875" y2="92.225"/>
        <line x1="249.8875" y1="79.225" x2="249.8875" y2="92.225"/>
        <path d="M236.3875,78.725 A0.5,0.5 0 0,0 235.8875,79.225 "/>
        <path d="M249.8875,79.225 A0.5,0.5 0 0,0 249.3875,78.725 "/>
        <path d="M235.8875,92.225 A0.5,0.5 0 0,0 236.3875,92.725 "/>
        <path d="M249.3875,92.725 A0.5,0.5 0 0,0 249.8875,92.225 "/>
        <line x1="0" y1="0" x2="285.75" y2="0"/>
        <line x1="0" y1="95.25" x2="285.75" y2="95.25"/>
        <line x1="0" y1="0" x2="0" y2="95.25"/>
        <line x1="285.75" y1="0" x2="285.75" y2="95.25"/>
    </g>
    <g lc:layername="Defpoints" lc:is_locked="false" lc:is_construction="false" fill="none" stroke="black" stroke-width="1"/>
    <g lc:layername="View Port" lc:is_locked="false" lc:is_construction="false" fill="none" stroke="black" stroke-width="1"/>
</svg>
